<svg
  version="1.0"
  xmlns="http://www.w3.org/2000/svg"
  width="64"
  height="64"
  viewBox="0 0 630 630"
>
  <rect width="100%" height="100%" fill="#F7DF1E" />
  <path d="M423.3,492c25.9,42.3,59.8,73.3,119.7,73.3c60.4,0,99.1-30.3,99.1-72.3c0-40-35.4-55.1-67.9-65.7l-25.8-11c-25.8-10.9-41.9-18.3-41.9-36.3c0-14.8,12.5-25.1,31.9-25.1c19.1,0,31.7,8.1,43.1,27.1l30.8-19.7c-19.3-33.7-46.3-48.3-86.5-48.3c-54.3,0-89.3,34.7-89.3,79.8c0,46.3,29.1,67.3,72.5,83.3l25.8,11c15.9,7.1,25.5,15.3,25.5,30.3c0,18.3-15.7,31.3-41.5,31.3c-27.9,0-48.3-14.5-61.5-34.9L423.3,492z M268.3,494.3c21.9,43.3,55.5,71.3,106,71.3c52.7,0,89.3-27.9,89.3-88.3V312.9h-39.5v163c0,31.9-16.5,47.9-44.3,47.9c-24.3,0-41.3-18.3-52.3-40.3L268.3,494.3z" />
</svg>
